<svg width="80" height="80" viewBox="0 0 80 80" fill="none" xmlns="http://www.w3.org/2000/svg">
<path fill-rule="evenodd" clip-rule="evenodd" d="M53.3333 30C53.3333 33.5362 51.9286 36.9276 49.4281 39.4281C46.9276 41.9286 43.5362 43.3333 40 43.3333C36.4638 43.3333 33.0724 41.9286 30.5719 39.4281C28.0714 36.9276 26.6667 33.5362 26.6667 30C26.6667 26.4638 28.0714 23.0724 30.5719 20.5719C33.0724 18.0714 36.4638 16.6667 40 16.6667C43.5362 16.6667 46.9276 18.0714 49.4281 20.5719C51.9286 23.0724 53.3333 26.4638 53.3333 30ZM46.6667 30C46.6667 31.7681 45.9643 33.4638 44.714 34.714C43.4638 35.9643 41.7681 36.6667 40 36.6667C38.2319 36.6667 36.5362 35.9643 35.286 34.714C34.0357 33.4638 33.3333 31.7681 33.3333 30C33.3333 28.2319 34.0357 26.5362 35.286 25.2859C36.5362 24.0357 38.2319 23.3333 40 23.3333C41.7681 23.3333 43.4638 24.0357 44.714 25.2859C45.9643 26.5362 46.6667 28.2319 46.6667 30Z" fill="#7D3C98"/>
<path fill-rule="evenodd" clip-rule="evenodd" d="M40 3.33333C19.75 3.33333 3.33334 19.75 3.33334 40C3.33334 60.25 19.75 76.6667 40 76.6667C60.25 76.6667 76.6667 60.25 76.6667 40C76.6667 19.75 60.25 3.33333 40 3.33333ZM10 40C10 46.9667 12.3767 53.38 16.36 58.4733C19.1581 54.8004 22.7672 51.8238 26.9055 49.7758C31.0437 47.7277 35.5993 46.6637 40.2167 46.6667C44.7746 46.6613 49.2736 47.697 53.3704 49.6946C57.4673 51.6922 61.0539 54.599 63.8567 58.1933C66.7448 54.4053 68.6895 49.984 69.5296 45.2953C70.3698 40.6065 70.0814 35.7851 68.6883 31.2299C67.2952 26.6748 64.8374 22.5168 61.5183 19.1001C58.1992 15.6834 54.1142 13.1062 49.6013 11.5817C45.0884 10.0572 40.2773 9.62923 35.5662 10.3332C30.8551 11.0372 26.3793 12.853 22.5092 15.6302C18.6392 18.4074 15.486 22.0662 13.3108 26.304C11.1355 30.5417 10.0006 35.2366 10 40ZM40 70C33.113 70.0112 26.4338 67.6419 21.0933 63.2933C23.2427 60.2154 26.104 57.7023 29.4336 55.9682C32.7632 54.234 36.4625 53.3301 40.2167 53.3333C43.9239 53.3301 47.5784 54.2115 50.8766 55.9044C54.1748 57.5972 57.0214 60.0526 59.18 63.0667C53.7982 67.5567 47.0088 70.011 40 70Z" fill="#7D3C98"/>
</svg>
