<svg width="27" height="28" viewBox="0 0 27 28" fill="none" xmlns="http://www.w3.org/2000/svg">
<path d="M5.41174 6.96149H3.94116C3.16111 6.96149 2.41302 7.27166 1.86145 7.82377C1.30987 8.37589 1 9.12471 1 9.90552V23.1537C1 23.9345 1.30987 24.6833 1.86145 25.2354C2.41302 25.7875 3.16111 26.0977 3.94116 26.0977H17.1764C17.9564 26.0977 18.7045 25.7875 19.2561 25.2354C19.8077 24.6833 20.1175 23.9345 20.1175 23.1537V21.6816" stroke="#7D3C98" stroke-width="2" stroke-linecap="round" stroke-linejoin="round"/>
<path d="M18.6468 4.01743L23.0586 8.43347M25.0953 6.35057C25.6745 5.77083 25.9999 4.98452 25.9999 4.16463C25.9999 3.34474 25.6745 2.55844 25.0953 1.97869C24.5161 1.39894 23.7306 1.07324 22.9115 1.07324C22.0924 1.07324 21.3069 1.39894 20.7277 1.97869L8.35278 14.3215V18.7376H12.7645L25.0953 6.35057Z" stroke="#7D3C98" stroke-width="2" stroke-linecap="round" stroke-linejoin="round"/>
</svg>
