<svg width="24" height="24" viewBox="0 0 24 24" fill="none" xmlns="http://www.w3.org/2000/svg">
<path d="M5 15C5 11.134 8.022 8 11.75 8H12.25C15.978 8 19 11.134 19 15C19 18.866 15.978 22 12.25 22H11.75C8.022 22 5 18.866 5 15Z" stroke="#FFD700" stroke-width="1.5" stroke-linecap="round" stroke-linejoin="round"/>
<path d="M12.5 18V12.948C12.5 12.374 12.5 12.086 12.27 12.015C11.763 11.858 11 12.999 11 12.999M12.5 18L11 17.999M12.5 18L14 17.999M13.56 2L11 7.898M18 2L15.179 8.5M10.44 2L12 5.594M6 2L8.821 8.5" stroke="#FFD700" stroke-width="1.5" stroke-linecap="round" stroke-linejoin="round"/>
</svg>
