<svg width="28" height="48" viewBox="0 0 28 48" fill="none" xmlns="http://www.w3.org/2000/svg">
<path d="M26.9293 46.9434C27.6149 46.2667 28 45.349 28 44.3922C28 43.4353 27.6149 42.5176 26.9293 41.8409L8.82719 23.9782L26.9293 6.11556C27.5954 5.43497 27.964 4.52342 27.9557 3.57725C27.9474 2.63108 27.5628 1.726 26.8847 1.05693C26.2067 0.387867 25.2895 0.00835449 24.3306 0.000133805C23.3718 -0.00809069 22.448 0.355641 21.7583 1.01298L1.07072 21.4269C0.385137 22.1036 2.97868e-07 23.0213 2.86457e-07 23.9782C2.75046e-07 24.9351 0.385137 25.8528 1.07072 26.5295L21.7583 46.9434C22.4441 47.62 23.3741 48 24.3438 48C25.3135 48 26.2435 47.62 26.9293 46.9434Z" fill="#7D3C98"/>
</svg>
