<svg width="80" height="80" viewBox="0 0 80 80" fill="none" xmlns="http://www.w3.org/2000/svg">
<path d="M63.3333 73.3333H16.6667C14.0145 73.3333 11.471 72.2798 9.59559 70.4044C7.72023 68.529 6.66666 65.9855 6.66666 63.3333V10C6.66666 9.11595 7.01785 8.2681 7.64297 7.64298C8.26809 7.01786 9.11593 6.66667 9.99999 6.66667H56.6667C57.5507 6.66667 58.3986 7.01786 59.0237 7.64298C59.6488 8.2681 60 9.11595 60 10V50H73.3333V63.3333C73.3333 65.9855 72.2798 68.529 70.4044 70.4044C68.529 72.2798 65.9855 73.3333 63.3333 73.3333ZM60 56.6667V63.3333C60 64.2174 60.3512 65.0652 60.9763 65.6904C61.6014 66.3155 62.4493 66.6667 63.3333 66.6667C64.2174 66.6667 65.0652 66.3155 65.6903 65.6904C66.3155 65.0652 66.6667 64.2174 66.6667 63.3333V56.6667H60ZM53.3333 66.6667V13.3333H13.3333V63.3333C13.3333 64.2174 13.6845 65.0652 14.3096 65.6904C14.9348 66.3155 15.7826 66.6667 16.6667 66.6667H53.3333ZM20 23.3333H46.6667V30H20V23.3333ZM20 36.6667H46.6667V43.3333H20V36.6667ZM20 50H36.6667V56.6667H20V50Z" fill="#7D3C98"/>
</svg>
