<svg width="25" height="25" viewBox="0 0 25 25" fill="none" xmlns="http://www.w3.org/2000/svg">
<path d="M15.5626 20.3125L12.5001 18.5104L9.43759 20.3125L10.2501 16.8333L7.55218 14.5L11.1043 14.1979L12.5001 10.9375L13.8959 14.1979L17.448 14.5L14.7501 16.8333M20.8334 2.08333H4.16676V4.16666L9.22926 7.95833C7.46302 8.71206 6.0113 10.0527 5.11961 11.7534C4.22792 13.4542 3.95099 15.4108 4.33566 17.2922C4.72032 19.1736 5.74297 20.8644 7.23065 22.0787C8.71833 23.293 10.5797 23.9563 12.5001 23.9563C14.4204 23.9563 16.2819 23.293 17.7695 22.0787C19.2572 20.8644 20.2799 19.1736 20.6645 17.2922C21.0492 15.4108 20.7723 13.4542 19.8806 11.7534C18.9889 10.0527 17.5372 8.71206 15.7709 7.95833L20.8334 4.16666M18.7501 15.625C18.7506 16.8086 18.4151 17.9681 17.7825 18.9684C17.1499 19.9688 16.2462 20.769 15.1766 21.2759C14.107 21.7827 12.9154 21.9755 11.7406 21.8316C10.5657 21.6878 9.45589 21.2133 8.54016 20.4634C7.62443 19.7134 6.94047 18.7189 6.56786 17.5955C6.19526 16.472 6.14932 15.2659 6.43539 14.1173C6.72147 12.9688 7.3278 11.9251 8.18384 11.1077C9.03987 10.2903 10.1104 9.73277 11.2709 9.5C12.082 9.33443 12.9182 9.33443 13.7293 9.5C15.1448 9.78393 16.4184 10.5492 17.3337 11.6657C18.2489 12.7823 18.7494 14.1813 18.7501 15.625ZM13.1563 7.29166H11.8438L7.67718 4.16666H17.4063L13.1563 7.29166Z" fill="#7D3C98"/>
</svg>
