<svg width="28" height="48" viewBox="0 0 28 48" fill="none" xmlns="http://www.w3.org/2000/svg">
<path d="M1.07072 1.05655C0.385139 1.73327 1.79147e-06 2.65097 1.74964e-06 3.60784C1.70782e-06 4.56472 0.385139 5.48242 1.07072 6.15914L19.1728 24.0218L1.07072 41.8844C0.404567 42.565 0.0359641 43.4766 0.0442962 44.4227C0.0526283 45.3689 0.437228 46.274 1.11526 46.9431C1.7933 47.6121 2.71052 47.9916 3.66937 47.9999C4.62822 48.0081 5.55198 47.6444 6.2417 46.987L26.9293 26.5731C27.6149 25.8964 28 24.9787 28 24.0218C28 23.0649 27.6149 22.1472 26.9293 21.4705L6.2417 1.05655C5.55591 0.380042 4.62591 -1.02171e-06 3.65621 -1.0641e-06C2.68651 -1.10649e-06 1.75651 0.380042 1.07072 1.05655Z" fill="#7D3C98"/>
</svg>
